<svg xmlns="http://www.w3.org/2000/svg" width="48" height="48" viewBox="0 0 48 48"><g transform="translate(-1242 -644)"><g transform="translate(1242 644)" fill="none" stroke="#fff" stroke-width="1"><circle cx="24" cy="24" r="24" stroke="none"/><circle cx="24" cy="24" r="23.5" fill="none"/></g><g transform="translate(1250 655)"><g transform="translate(-0.035 -0.255)" fill="none"><path d="M31.963,9.073a1.251,1.251,0,0,0-.222-.414L25.511.774a1.391,1.391,0,0,0-1.1-.519H7.657A1.375,1.375,0,0,0,6.464.926L.324,8.694a1.351,1.351,0,0,0-.22.414,1.259,1.259,0,0,0,.284,1.287L14.856,25.62a1.5,1.5,0,0,0,1.59.583,1.35,1.35,0,0,0,.868-.72L31.682,10.362a1.257,1.257,0,0,0,.281-1.289Z" stroke="none"/><path d="M 7.717521667480469 1.754596710205078 L 7.70781135559082 1.771377563476563 L 7.640630722045898 1.856367111206055 L 1.602943420410156 9.495182037353516 L 15.94289970397949 24.58675765991211 L 16.02256011962891 24.67059707641602 L 16.031494140625 24.68349075317383 L 16.05856132507324 24.6257381439209 L 16.22620010375977 24.44932746887207 L 30.46619606018066 9.464164733886719 L 24.37426948547363 1.754596710205078 L 7.717521667480469 1.754596710205078 M 24.41904830932617 0.2545604705810547 C 24.84802627563477 0.2545604705810547 25.25239753723145 0.4466133117675781 25.5108699798584 0.7735977172851563 L 31.74162101745605 8.658847808837891 C 31.84164047241211 8.782777786254883 31.91683006286621 8.923236846923828 31.96341133117676 9.073177337646484 L 31.96355056762695 9.073177337646484 C 32.12121200561523 9.519657135009766 32.0136604309082 10.01253700256348 31.68230056762695 10.36194801330566 L 17.31355094909668 25.48260688781738 C 17.14942932128906 25.83282661437988 16.83195114135742 26.09636688232422 16.44559097290039 26.20307731628418 C 16.32065963745117 26.23758697509766 16.19265365600586 26.25456237792969 16.06525802612305 26.25456237792969 C 15.79868698120117 26.25456237792969 15.53489303588867 26.18019676208496 15.30824089050293 26.03650665283203 C 15.12709045410156 25.93105697631836 14.97252082824707 25.78885650634766 14.85551071166992 25.61999702453613 L 0.3884506225585938 10.39465713500977 C 0.05757904052734375 10.04592704772949 -0.05075836181640625 9.55430793762207 0.1049213409423828 9.108066558837891 C 0.1529102325439453 8.959087371826172 0.2271404266357422 8.818977355957031 0.3244304656982422 8.693737030029297 L 6.463830947875977 0.9262371063232422 C 6.703647613525391 0.5118637084960938 7.160694122314453 0.2545967102050781 7.656948089599609 0.2545967102050781 C 7.657098770141602 0.2545967102050781 7.657258987426758 0.2545967102050781 7.657411575317383 0.2545967102050781 L 24.40875053405762 0.2545967102050781 C 24.41218566894531 0.2545719146728516 24.41561508178711 0.2545604705810547 24.41904830932617 0.2545604705810547 Z" stroke="none" fill="#fff"/></g><path d="M7,8a.6.6,0,0,1-.506-.189L.163,1.018A.605.605,0,1,1,1.048.193L7,6.575,12.952.193a.605.605,0,1,1,.885.825L7.506,7.807A.605.605,0,0,1,7,8Z" transform="translate(9.044 9.543)" fill="#fff" stroke="#fff" stroke-width="0.5"/></g></g></svg>