<svg xmlns="http://www.w3.org/2000/svg" width="110" height="40" viewBox="0 0 110 40"><g transform="translate(-187.5 -385.5)"><rect width="110" height="40" transform="translate(187.5 385.5)" fill="none"/><path d="M287.388,595.551h.258a5.106,5.106,0,0,0,1.017,0c1.4-.258,2.1-.9,2.082-1.969a1.364,1.364,0,0,0-.533-1.243,4.128,4.128,0,0,0-1.969-.339H286.5v6.57h.872v-3.019Zm0-3.18a6.629,6.629,0,0,1,1.388,0,1.164,1.164,0,0,1,1.1,1.243,1.482,1.482,0,0,1-1.55,1.55,8.941,8.941,0,0,1-.936,0Z" transform="translate(-77.149 -173.167)" fill="#fff" fill-rule="evenodd"/><path d="M321.472,592.339h.4a4.661,4.661,0,0,1,.985,0,1.146,1.146,0,0,1,1.065,1.243,1.406,1.406,0,0,1-1.211,1.372,4.251,4.251,0,0,1-1.162.065h-.081Zm-.872,6.231h.872v-3.212h.339l.807.9,1.13,1.469a5.246,5.246,0,0,0,.6.839h1.13l-.194-.226-.484-.533-1.953-2.534c1.291-.258,1.937-.855,1.953-1.808.032-.985-.694-1.469-2.147-1.469H320.6Z" transform="translate(-105.745 -173.167)" fill="#fff" fill-rule="evenodd"/><path d="M360.479,594.441c-.129,2.018-1.017,3.067-2.68,3.18-1.679-.1-2.583-1.1-2.647-2.986.081-2.082.985-3.18,2.728-3.245a2.5,2.5,0,0,1,2,.936,3.063,3.063,0,0,1,.6,2.115m-2.728,3.454c2.324-.1,3.535-1.275,3.664-3.519-.081-2.066-1.291-3.164-3.664-3.277-2.244.145-3.422,1.291-3.551,3.438.1,2.147,1.291,3.277,3.551,3.358" transform="translate(-133.921 -172.412)" fill="#fff" fill-rule="evenodd"/><path d="M406.8,598.57h.823v-3.293h1.969a2.223,2.223,0,0,0,.42.032v-.145a.156.156,0,0,1,0-.226v-.113h-.42a2.638,2.638,0,0,1-.452.032h-1.517v-2.421h1.743a2.075,2.075,0,0,1,.307.048,5.083,5.083,0,0,1,.565.081.943.943,0,0,1-.032-.307.629.629,0,0,1,.032-.258H406.8Z" transform="translate(-178.03 -173.167)" fill="#fff" fill-rule="evenodd"/><path d="M437.623,592.536h1.743a2.07,2.07,0,0,1,.307.048c.242.032.436.048.565.081a1.79,1.79,0,0,1-.032-.307,1.125,1.125,0,0,1,.032-.258H436.8v6.57h3.471v-.145c-.016-.065-.048-.1-.048-.145a.526.526,0,0,1,.048-.161V598.1c-.274.048-.307.048-.081,0a6.793,6.793,0,0,1-.791.081h-.872c-.4.016-.71.032-.9.032v-2.841h1.953a2.231,2.231,0,0,0,.42.032v-.145a.214.214,0,0,1,0-.226v-.113h-.42c-.194.016-.339.032-.452.032h-1.5Z" transform="translate(-203.188 -173.25)" fill="#fff" fill-rule="evenodd"/><path d="M464.245,596.624a5.169,5.169,0,0,1-.145.872,2.7,2.7,0,0,0,1.55.5,2.134,2.134,0,0,0,2.389-2.163,1.822,1.822,0,0,0-1.6-1.646A1.675,1.675,0,0,1,465,592.75a1.125,1.125,0,0,1,1.211-1.13,1.216,1.216,0,0,1,1.211.823h.081a6.461,6.461,0,0,1,.258-.791,2.388,2.388,0,0,0-1.356-.452c-1.388.048-2.1.678-2.163,1.856a1.928,1.928,0,0,0,1.63,1.776,1.641,1.641,0,0,1,1.4,1.4,1.393,1.393,0,0,1-1.356,1.437,1.609,1.609,0,0,1-1.55-1.017h-.129Z" transform="translate(-226.081 -172.496)" fill="#fff" fill-rule="evenodd"/><path d="M494.245,596.624a7.553,7.553,0,0,1-.145.872,2.66,2.66,0,0,0,1.55.5,2.134,2.134,0,0,0,2.389-2.163,1.821,1.821,0,0,0-1.582-1.646,1.658,1.658,0,0,1-1.437-1.437,1.125,1.125,0,0,1,1.211-1.13,1.216,1.216,0,0,1,1.211.823h.081c.081-.274.161-.533.258-.791a2.4,2.4,0,0,0-1.372-.452c-1.388.048-2.1.678-2.147,1.856a1.913,1.913,0,0,0,1.63,1.776,1.623,1.623,0,0,1,1.388,1.4,1.393,1.393,0,0,1-1.356,1.437,1.623,1.623,0,0,1-1.55-1.017h-.129Z" transform="translate(-251.238 -172.496)" fill="#fff" fill-rule="evenodd"/><path d="M526.8,598.57h.872V592H526.8Z" transform="translate(-278.66 -173.167)" fill="#fff" fill-rule="evenodd"/><path d="M546.763,594.441c-.129,2.018-1.017,3.067-2.68,3.18-1.679-.1-2.567-1.1-2.647-2.986.081-2.082.985-3.18,2.712-3.245a2.5,2.5,0,0,1,2,.936,2.912,2.912,0,0,1,.613,2.115m-2.712,3.454c2.308-.1,3.535-1.275,3.664-3.519-.081-2.066-1.291-3.164-3.664-3.277-2.244.145-3.422,1.291-3.551,3.438.1,2.147,1.275,3.277,3.551,3.358" transform="translate(-290.148 -172.412)" fill="#fff" fill-rule="evenodd"/><path d="M599.3,592h-.549v4.988h-.113L594.071,592H593.7v6.57h.517v-5.182h.081l4.2,4.617a2.9,2.9,0,0,0,.258.307c.129.129.21.21.226.274h.307V592Z" transform="translate(-334.761 -173.167)" fill="#fff" fill-rule="evenodd"/><path d="M638.445,591h-.226l-3.019,6.731h.71a25.489,25.489,0,0,1,.952-2.567h2.454q.266.605.678,1.743c.145.371.258.662.339.839h1.033Zm.71,3.745H637.04l1.065-2.5Z" transform="translate(-369.562 -172.328)" fill="#fff" fill-rule="evenodd"/><path d="M680.123,592H679.3v6.57h3.5v-.145a.472.472,0,0,1-.032-.145,1.357,1.357,0,0,1,.032-.161V598a5.7,5.7,0,0,1-.9.081h-.872c-.4.016-.71.032-.9.032Z" transform="translate(-406.543 -173.167)" fill="#fff" fill-rule="evenodd"/><path d="M267.995,411.53a3.7,3.7,0,0,0-1.421-2.889,5.873,5.873,0,0,0-3.793-1.146,4.754,4.754,0,0,0-3.293,1.065,3.649,3.649,0,0,0-1.195,2.889,4.107,4.107,0,0,0,.5,2.018,5.166,5.166,0,0,0,1.533,1.63,10.941,10.941,0,0,0,2.115,1.211,28.356,28.356,0,0,1,2.873,1.517c.807.484,1.517.936,2.115,1.372a8.615,8.615,0,0,1,1.533,1.388,5.7,5.7,0,0,1,.936,1.63,6.252,6.252,0,0,1,.307,2.066,6.4,6.4,0,0,1-.581,2.76,6.009,6.009,0,0,1-1.646,2.115,7.711,7.711,0,0,1-2.615,1.356,11.526,11.526,0,0,1-3.454.484,10.748,10.748,0,0,1-3.648-.613,8.25,8.25,0,0,1-2.889-1.792,1.048,1.048,0,0,1-.452-.791.718.718,0,0,1,.21-.533.641.641,0,0,1,.436-.226.751.751,0,0,1,.484.178,9.924,9.924,0,0,0,5.763,2.066c3.5,0,5.278-1.356,5.278-4.068a4.663,4.663,0,0,0-.355-1.9,4.571,4.571,0,0,0-1.049-1.4,9.143,9.143,0,0,0-1.663-1.178l-2.131-1.243c-1.033-.6-1.953-1.146-2.793-1.663a12.558,12.558,0,0,1-2.082-1.6,6.443,6.443,0,0,1-1.308-1.792,5.608,5.608,0,0,1,1.534-6.538,9.011,9.011,0,0,1,5.763-1.6,9.519,9.519,0,0,1,2.841.4,8.88,8.88,0,0,1,2.6,1.291v3.551l-.307.129Zm-17.353,19.128h-.969a2.228,2.228,0,0,1-2.373-2.131V406.736h3.341Zm-11.929-1.34a1.758,1.758,0,0,1-1.856,1.663c-.823,0-1.42-.565-1.759-1.695l-5.682-18h-.452l-5.408,19.37H220.7l-4.375-19.58c-.161-.694-.323-1.275-.452-1.76-.145-.484-.678-2.583-.678-2.583h3.019l4.665,19.79h.484l5.23-18.854a1.32,1.32,0,0,1,1.275-.969,1.381,1.381,0,0,1,1.34.969l5.989,18.854h.484l3.793-19.37a.9.9,0,0,1,.307-.517.761.761,0,0,1,.517-.21.687.687,0,0,1,.6.274,1.027,1.027,0,0,1,.226.662Zm33.011-11.542H280.3v-8.571h2.066v8.571h8.571v2.066h-8.571v8.571H280.3v-8.571h-8.571Zm-77.224,0h8.571v-8.571h2.066v8.571h8.571v2.066h-8.571v8.571h-2.066v-8.571H194.5Z" transform="translate(0 -17.442)" fill="#fff" fill-rule="evenodd"/><path d="M782.8,389.374a3.874,3.874,0,1,1,3.874,3.874,3.865,3.865,0,0,1-3.874-3.874m.355,0a3.519,3.519,0,1,1,3.519,3.519,3.517,3.517,0,0,1-3.519-3.519" transform="translate(-493.05)" fill="#fff" fill-rule="evenodd"/><path d="M793.9,399.63V394.9H796a2.975,2.975,0,0,1,.969.129,1.107,1.107,0,0,1,.533.452,1.341,1.341,0,0,1,.194.71,1.223,1.223,0,0,1-.323.855,1.7,1.7,0,0,1-1,.436,1.477,1.477,0,0,1,.371.242,3.479,3.479,0,0,1,.517.63l.807,1.291h-.775l-.613-.985c-.177-.291-.339-.5-.452-.662a1.111,1.111,0,0,0-.323-.307,1.145,1.145,0,0,0-.291-.129,1.872,1.872,0,0,0-.355-.016h-.726v2.1h-.63Zm.63-2.647h1.34a2.294,2.294,0,0,0,.662-.081.639.639,0,0,0,.355-.291.8.8,0,0,0,.129-.42.723.723,0,0,0-.242-.549,1.121,1.121,0,0,0-.759-.21h-1.5v1.55Z" transform="translate(-502.35 -7.883)" fill="#fff" fill-rule="evenodd"/></g></svg>