<svg xmlns="http://www.w3.org/2000/svg" width="48" height="48" viewBox="0 0 48 48"><g transform="translate(-1002 -644)"><g transform="translate(1002 644)" fill="none" stroke="#fff" stroke-width="1"><circle cx="24" cy="24" r="24" stroke="none"/><circle cx="24" cy="24" r="23.5" fill="none"/></g><g transform="translate(1039.707 654.396) rotate(90)"><path d="M25.952,18.6a.637.637,0,0,1-.509-.246,16.527,16.527,0,0,0-2.66-2.66A5.6,5.6,0,0,0,19.2,14.208c-1.622-.191-2.4-.145-6.428.38a17.3,17.3,0,0,1-5.8-.071,6.869,6.869,0,0,1-3.834-2.1L.793,10.066a.651.651,0,0,1,.921-.921L4.1,11.527l.014.018c1.475,1.705,4.333,2.294,8.5,1.754,4.124-.539,5.008-.589,6.752-.382a6.8,6.8,0,0,1,4.232,1.756,18,18,0,0,1,2.87,2.87.651.651,0,0,1-.509,1.056Zm-8.108,8.108a.64.64,0,0,1-.405-.143,18,18,0,0,1-2.87-2.87,9.169,9.169,0,0,1-1.751-4.2,5.975,5.975,0,0,1-.058-2.281,3.672,3.672,0,0,0,.048-.4.652.652,0,0,1,1.3.06,4.283,4.283,0,0,1-.064.543,4.8,4.8,0,0,0,.055,1.855,7.893,7.893,0,0,0,1.489,3.611,16.526,16.526,0,0,0,2.66,2.66.651.651,0,0,1,.1.914.661.661,0,0,1-.511.249ZM14.056,10.652a.654.654,0,0,1-.651-.633,8.074,8.074,0,0,0-1.613-5.452l-2.75-2.75A.651.651,0,0,1,9.962.9l2.794,2.794.018.023a9.393,9.393,0,0,1,1.933,6.269.652.652,0,0,1-.635.667s-.011,0-.016,0Z" fill="#fff"/><path d="M157.071,153.4,154.478,156a.369.369,0,0,0,0,.523l.174.174a.369.369,0,0,0,.523,0l2.594-2.594a.369.369,0,0,0,0-.523l-.174-.174a.369.369,0,0,0-.523,0Zm1.557,1.557-2.594,2.594a.369.369,0,0,0,0,.523l.174.174a.369.369,0,0,0,.523,0l2.594-2.594a.369.369,0,0,0,0-.523l-.174-.174A.371.371,0,0,0,158.628,154.962Zm-15.141-15.141-2.594,2.594a.369.369,0,0,0,0,.523l.174.174a.369.369,0,0,0,.523,0l2.594-2.594a.369.369,0,0,0,0-.523l-.174-.174a.369.369,0,0,0-.523,0Zm1.559,1.559-2.594,2.594a.369.369,0,0,0,0,.523l.174.174a.369.369,0,0,0,.523,0l2.594-2.594a.369.369,0,0,0,0-.523l-.174-.174a.369.369,0,0,0-.523,0Z" transform="translate(-136.813 -135.682)" fill="#fff"/></g></g></svg>