<svg xmlns="http://www.w3.org/2000/svg" width="48" height="48" viewBox="0 0 48 48"><g transform="translate(-1002 -644)"><g transform="translate(1002 644)" fill="none" stroke="#fff" stroke-width="1"><circle cx="24" cy="24" r="24" stroke="none"/><circle cx="24" cy="24" r="23.5" fill="none"/></g><path d="M31.744,8.355,26.052,2.61a1.923,1.923,0,0,0-2.8,0L19.2,6.732,13.2.606a1.923,1.923,0,0,0-2.8,0L.922,10.172a2.046,2.046,0,0,0,0,2.872l13.213,13.35a1.923,1.923,0,0,0,2.8,0l9.47-9.493a1.439,1.439,0,0,0,.4-.675l4.938-4.984a2.046,2.046,0,0,0,0-2.872Zm-6.2,7.4c0,.065-.064.136-.135.2L23.982,17.4l-6.133-6.19a.657.657,0,0,0-.892.04.672.672,0,0,0-.04.9l6.176,6.169L21.221,20.2l-8.488-8.553a.657.657,0,0,0-.892.04.672.672,0,0,0-.04.9l8.445,8.617L18.311,23.1l-6.133-6.19a.658.658,0,0,0-.66-.222.67.67,0,0,0-.272,1.162l6.154,6.19-1.423,1.436a.643.643,0,0,1-.932,0L1.861,12.125a.658.658,0,0,1,0-.941l9.4-9.565a.643.643,0,0,1,.932,0l6.468,6.6.47.474L25.4,15.019a.765.765,0,0,1,.2.539.246.246,0,0,1-.057.2Zm5.272-5.45L26.65,14.48a1.784,1.784,0,0,0-.334-.4L20.047,7.752l4.07-4.108a.643.643,0,0,1,.932,0l5.692,5.745a.607.607,0,0,1,.064.941Z" transform="translate(1009.667 655)" fill="#fff"/></g></svg>