<svg xmlns="http://www.w3.org/2000/svg" width="48" height="48" viewBox="0 0 48 48"><g transform="translate(-250 -349)"><g transform="translate(262 361.001)"><path d="M-10795.937-2827a.4.4,0,0,1-.4-.4.4.4,0,0,1,.4-.4h3.867a.4.4,0,0,1,.4.4.4.4,0,0,1-.4.4Zm-.637-1.936a.4.4,0,0,1-.4-.4.4.4,0,0,1,.4-.4h5.152a.4.4,0,0,1,.4.4.405.405,0,0,1-.4.4Zm-5.025-9.4a7.6,7.6,0,0,1,7.6-7.588,7.6,7.6,0,0,1,7.6,7.588,7.4,7.4,0,0,1-7.6,7.347A7.4,7.4,0,0,1-10801.6-2838.333Zm.8,0a6.6,6.6,0,0,0,6.8,6.547,6.6,6.6,0,0,0,6.8-6.547,6.8,6.8,0,0,0-6.8-6.788A6.8,6.8,0,0,0-10800.8-2838.333Zm16.415.046a.4.4,0,0,1-.4-.4.4.4,0,0,1,.4-.4h1.982a.4.4,0,0,1,.4.4.4.4,0,0,1-.4.4Zm-21.215,0a.4.4,0,0,1-.4-.4.4.4,0,0,1,.4-.4h1.982a.4.4,0,0,1,.4.4.4.4,0,0,1-.4.4Zm18.767-7.1a.394.394,0,0,1,0-.567l1.4-1.4a.4.4,0,0,1,.567,0,.394.394,0,0,1,0,.567l-1.4,1.4a.417.417,0,0,1-.29.119A.374.374,0,0,1-10786.832-2845.387Zm-14.895,0-1.41-1.4a.394.394,0,0,1,0-.567.4.4,0,0,1,.569,0l1.4,1.4a.394.394,0,0,1,0,.567.412.412,0,0,1-.279.114A.366.366,0,0,1-10801.727-2845.387Zm7.325-3.233v-1.98a.4.4,0,0,1,.4-.4.4.4,0,0,1,.4.4v1.98a.4.4,0,0,1-.4.4A.4.4,0,0,1-10794.4-2848.62Z" transform="translate(10806 2851)" fill="#fff" stroke="#fff" stroke-width="0.4"/></g><g transform="translate(250 349)" fill="none" stroke="#fff" stroke-width="1"><circle cx="24" cy="24" r="24" stroke="none"/><circle cx="24" cy="24" r="23.5" fill="none"/></g></g></svg>