<svg xmlns="http://www.w3.org/2000/svg" width="48" height="48" viewBox="0 0 48 48"><g transform="translate(-762 -644)"><g transform="translate(762 644)" fill="none" stroke="#fff" stroke-width="1"><circle cx="24" cy="24" r="24" stroke="none"/><circle cx="24" cy="24" r="23.5" fill="none"/></g><path d="M102.9,87.01H91.081a.545.545,0,1,1,0-1.09H102.9a5.492,5.492,0,1,0,0-10.984.545.545,0,1,1,0-1.09,6.583,6.583,0,1,1,0,13.165ZM98.677,97.845a.545.545,0,1,1,0-1.09,3.319,3.319,0,1,0,0-6.638H86.13a.545.545,0,1,1,0-1.09H98.677a4.409,4.409,0,1,1,0,8.818ZM100.3,83.478H86.1a.544.544,0,1,1,0-1.087h14.2a.544.544,0,1,1,0,1.087Z" transform="translate(687.95 582.655)" fill="#fff" stroke="#fff" stroke-width="0.4"/></g></svg>