<svg xmlns="http://www.w3.org/2000/svg" width="48" height="48" viewBox="0 0 48 48"><g transform="translate(-410 -479)"><g transform="translate(410 479)" fill="none" stroke="#fff" stroke-width="1"><circle cx="24" cy="24" r="24" stroke="none"/><circle cx="24" cy="24" r="23.5" fill="none"/></g><path d="M87.7,105.913l-2.861-2.419a.661.661,0,0,0-.753-.151l-2.258.908-1.805,1.209c-.3.151-.3.455-.3.757l.3,2.271a12.884,12.884,0,0,1-2.105,1.665s-2.258.151-2.708.151l-2.255-1.212c-.15-.455-.9-2.723-.9-2.723-.15-.3-.3-.455-.753-.3l-3.008,1.514c-.3.151-.453.3-.453.606v1.363l-.6.606-1.2.151H65.58l-1.355,1.363a.735.735,0,0,0,0,1.059l.9.757.753,3.025a1.55,1.55,0,0,0,.15.455l2.711,2.112c.15.3.3.3.453.3H71.9v1.966a.712.712,0,0,0,.753.757h3.008l1.355.908a.671.671,0,0,0,.753,0l1.955-.908,2.408-1.059c.15-.151.3-.151.3-.3l1.505-1.665a1.153,1.153,0,0,0,.3-.606v-2.422a1.153,1.153,0,0,0-.3-.606l-.753-.757,1.053-.908c.15,0,.3-.3.3-.3l.9-1.665,2.105-1.514c.3-.3.453-.455.453-.757v-3.022a.8.8,0,0,0-.3-.606Zm-1.205,3.179-1.955,1.363c-.15,0-.15.3-.3.3l-.753,1.514-1.805,1.514a.8.8,0,0,0-.15,1.209l1.2,1.363v1.665l-1.655,1.816L78.821,120.9l-1.355.606-.9-.606a1.588,1.588,0,0,0-.753-.3H73.4v-2.117c0-.455-.3-.606-.753-.606H69.488l-2.1-1.667-.453-2.874c0-.151-.15-.3-.15-.455l-.9-.6.453-.455,1.505-.151a.523.523,0,0,1,.3-.151l1.2-1.209v-1.36l1.805-.908a24,24,0,0,0,.9,2.271s2.858,1.514,3.008,1.514a26.887,26.887,0,0,0,3.611-.3c.15-.151,2.558-2.117,2.558-2.117.3-.151.3-.455.3-.757l-.15-1.966,1.355-.908,1.655-.455,2.105,1.665Zm-1.805,13.315h-.753a.324.324,0,0,1-.3-.3v-.757a.324.324,0,0,1,.3-.3h.753a.324.324,0,0,1,.3.3v.757A.321.321,0,0,1,84.689,122.406Zm-6.019,2.874H76.262a.324.324,0,0,1-.3-.3v-.757a.324.324,0,0,1,.3-.3h2.258a.324.324,0,0,1,.3.3v.757C78.973,125.13,78.821,125.28,78.671,125.28Z" transform="translate(358 388.719)" fill="#fff"/></g></svg>