<svg xmlns="http://www.w3.org/2000/svg" width="48" height="48" viewBox="0 0 48 48"><g transform="translate(-250 -479)"><g transform="translate(250 479)" fill="none" stroke="#fff" stroke-width="1"><circle cx="24" cy="24" r="24" stroke="none"/><circle cx="24" cy="24" r="23.5" fill="none"/></g><g transform="translate(261.999 491)"><path d="M16.846,0A3.26,3.26,0,0,1,19.17.967a3.367,3.367,0,0,1,1,2.358,3.367,3.367,0,0,1-1,2.358,3.313,3.313,0,0,1-4.679,0,3.367,3.367,0,0,1-1-2.358,3.367,3.367,0,0,1,1-2.358A3.279,3.279,0,0,1,16.846,0Zm1.57,1.753a2.221,2.221,0,0,0-3.17,0,2.269,2.269,0,0,0-.664,1.572,2.343,2.343,0,0,0,.664,1.6,2.3,2.3,0,0,0,3.17,0,2.214,2.214,0,0,0,.664-1.6,2.146,2.146,0,0,0-.664-1.572ZM5.857,3.385a2.306,2.306,0,0,1,1.63.7,2.36,2.36,0,0,1,.664,1.632,2.417,2.417,0,0,1-.664,1.632,2.279,2.279,0,0,1-1.63.665A2.3,2.3,0,0,1,4.2,7.345a2.417,2.417,0,0,1-.664-1.632A2.36,2.36,0,0,1,4.2,4.081a2.323,2.323,0,0,1,1.66-.7ZM6.7,4.836a1.1,1.1,0,0,0-.845-.363,1.116,1.116,0,0,0-.875.363,1.119,1.119,0,0,0-.362.877,1.1,1.1,0,0,0,.362.846,1.116,1.116,0,0,0,.875.363A1.1,1.1,0,0,0,6.7,6.559a1.1,1.1,0,0,0,.362-.846A1.119,1.119,0,0,0,6.7,4.836ZM3.321,16.262a3.464,3.464,0,0,1,2.355.967,3.34,3.34,0,0,1,.966,2.358,3.287,3.287,0,0,1-.966,2.358,3.35,3.35,0,0,1-4.709,0A3.287,3.287,0,0,1,0,19.587a3.34,3.34,0,0,1,.966-2.358,3.464,3.464,0,0,1,2.355-.967Zm1.6,1.753a2.209,2.209,0,0,0-1.6-.665,2.14,2.14,0,0,0-1.57.665,2.146,2.146,0,0,0-.664,1.572,2.214,2.214,0,0,0,.664,1.6,2.263,2.263,0,0,0,1.57.665,2.337,2.337,0,0,0,1.6-.665,2.317,2.317,0,0,0,.634-1.6A2.243,2.243,0,0,0,4.921,18.015ZM20.68,17.35A3.209,3.209,0,0,1,23,18.317a3.312,3.312,0,0,1,1,2.358A3.352,3.352,0,0,1,20.68,24a3.407,3.407,0,0,1-2.355-.967,3.34,3.34,0,0,1-.966-2.358A3.3,3.3,0,0,1,20.68,17.35Zm1.57,1.723a2.263,2.263,0,0,0-1.57-.665,2.269,2.269,0,0,0-2.264,2.267,2.269,2.269,0,0,0,.664,1.572,2.209,2.209,0,0,0,1.6.665,2.27,2.27,0,0,0,2.234-2.237A2.214,2.214,0,0,0,22.25,19.073ZM11.985,7.587a4.436,4.436,0,0,1,4.408,4.383,4.435,4.435,0,0,1-4.408,4.413,4.4,4.4,0,0,1,0-8.8ZM14.34,9.642a3.323,3.323,0,1,0,.966,2.327,3.279,3.279,0,0,0-.966-2.327Z" transform="translate(0)" fill="#fff" stroke="#fff" stroke-width="0.4"/><path d="M227.245,237.427l1.647-2.707.912.53-1.677,2.736Zm-5.736-1.677,2.294,2.089-.706.765-2.294-2.06Zm2.03,8.268-3.618,3.119-.677-.794,3.618-3.119Zm5.53-.794,3.794,3.943-.735.736-3.824-3.943Z" transform="translate(-213.928 -229.029)" fill="#fff" stroke="#fff" stroke-width="0.4"/></g></g></svg>