<svg xmlns="http://www.w3.org/2000/svg" width="48" height="48" viewBox="0 0 48 48"><g transform="translate(-522 -644)"><g transform="translate(522 644)" fill="none" stroke="#fff" stroke-width="1"><circle cx="24" cy="24" r="24" stroke="none"/><circle cx="24" cy="24" r="23.5" fill="none"/></g><path d="M115.919,108.915a.706.706,0,0,0-1.224.7c1.914,3.331,2.4,6.11,1.259,7.248-2.175,2.178-8.955-1.566-13.679-6.291a34.862,34.862,0,0,1-3.2-3.676,33.49,33.49,0,0,1,3.2-3.713c4.722-4.722,11.5-8.463,13.679-6.288.888.888.8,2.8-.256,5.259a28.472,28.472,0,0,1-6.035,8.42c-.641.641-1.3,1.259-1.974,1.833a.705.705,0,1,0,.92,1.069c.7-.6,1.385-1.241,2.052-1.905a29.888,29.888,0,0,0,6.334-8.86c1.31-3.055,1.293-5.475-.043-6.811-2.632-2.632-9.518.132-15.674,6.291a36.6,36.6,0,0,0-3.075,3.483,21.746,21.746,0,0,1-1.963-3.518c-1.052-2.451-1.144-4.368-.256-5.259,1.138-1.138,3.911-.658,7.242,1.253a.705.705,0,1,0,.7-1.224c-4.023-2.308-7.282-2.684-8.94-1.026-1.339,1.339-1.354,3.756-.043,6.811a23.579,23.579,0,0,0,2.374,4.167c-3.245,4.65-4.3,9.009-2.331,10.981a3.817,3.817,0,0,0,2.8,1.02,13.186,13.186,0,0,0,6.222-2.1.706.706,0,0,0-.71-1.221c-3.365,1.954-6.17,2.451-7.32,1.3-1.483-1.483-.216-5.1,2.236-8.756a36.366,36.366,0,0,0,3.055,3.463,29.914,29.914,0,0,0,8.863,6.334,10.471,10.471,0,0,0,4.012.971,3.824,3.824,0,0,0,2.8-1.014C118.609,116.206,118.232,112.944,115.919,108.915Zm-9.949-4.385a2.354,2.354,0,1,0,2.354,2.354A2.355,2.355,0,0,0,105.97,104.53Z" transform="translate(440.029 561.115)" fill="#fff"/></g></svg>