<svg xmlns="http://www.w3.org/2000/svg" width="48" height="48" viewBox="0 0 48 48"><g transform="translate(-522 -644)"><g transform="translate(522 644)" fill="none" stroke="#fff" stroke-width="1"><circle cx="24" cy="24" r="24" stroke="none"/><circle cx="24" cy="24" r="23.5" fill="none"/></g><g transform="translate(534 654)"><path d="M172.05,131.888a18.819,18.819,0,0,1-5.809-1.3,19.311,19.311,0,0,1-3.924-2.213,1.654,1.654,0,0,0-1.966,0,19.278,19.278,0,0,1-3.925,2.213,18.79,18.79,0,0,1-5.808,1.3,1.4,1.4,0,0,0-1.285,1.429v8.019a14.667,14.667,0,0,0,1.6,6.7,16.251,16.251,0,0,0,1.892,2.962c4.149,5,8.327,5.058,8.507,5.058s4.367-.078,8.5-5.058a16.268,16.268,0,0,0,1.892-2.963,14.662,14.662,0,0,0,1.6-6.7v-8.019A1.4,1.4,0,0,0,172.05,131.888Zm-.128,9.448a13.1,13.1,0,0,1-1.432,5.98,14.536,14.536,0,0,1-1.715,2.693c-3.687,4.443-7.411,4.55-7.438,4.55s-3.745-.09-7.445-4.55a14.674,14.674,0,0,1-1.715-2.693,13.1,13.1,0,0,1-1.432-5.981v-7.96a20.163,20.163,0,0,0,6.195-1.4,20.714,20.714,0,0,0,4.216-2.378.3.3,0,0,1,.356,0,20.751,20.751,0,0,0,4.216,2.378,20.177,20.177,0,0,0,6.195,1.4v7.96Z" transform="translate(-149.333 -128.052)" fill="#fff"/><path d="M340.016,395.988a.694.694,0,0,0-.528-.184.71.71,0,0,0-.494.271.814.814,0,0,0,.082,1.094l4.467,4.071a.694.694,0,0,0,.528.184.709.709,0,0,0,.494-.271l6.418-8.06A.814.814,0,0,0,350.9,392a.693.693,0,0,0-1.023.088l-5.947,7.469Z" transform="translate(-332.724 -382.762)" fill="#fff"/></g></g></svg>