<svg xmlns="http://www.w3.org/2000/svg" width="48" height="48" viewBox="0 0 48 48"><g transform="translate(-410 -349)"><g transform="translate(410 349)" fill="none" stroke="#fff" stroke-width="1"><circle cx="24" cy="24" r="24" stroke="none"/><circle cx="24" cy="24" r="23.5" fill="none"/></g><path d="M-9934.925-2489l0-.01h-9.614a.562.562,0,0,1-.476-.264.558.558,0,0,1-.027-.543l1.589-3.271a.566.566,0,0,1,.269-.263,7.737,7.737,0,0,1-4.28-6.919.552.552,0,0,1,.145-.375l-2.5-2.192a.557.557,0,0,1-.033-.775.558.558,0,0,1,.771-.065l6.726,5.884a.557.557,0,0,1,.155.621.559.559,0,0,1-.527.363.563.563,0,0,1-.368-.14l-3.226-2.825a6.617,6.617,0,0,0,4.373,5.744,6.613,6.613,0,0,0,7.348-2.053,6.654,6.654,0,0,0,.679-1,6.622,6.622,0,0,0,.527-5.127,6.63,6.63,0,0,0-3.309-3.953.563.563,0,0,1-.236-.157l-4.052,5.025a.557.557,0,0,1-.378.2l-.058.006a.566.566,0,0,1-.354-.125l-3.782-3.056a.56.56,0,0,1-.2-.363.563.563,0,0,1,.119-.414l6.905-8.554a.558.558,0,0,1,.775-.1l.428.345,1.162-1.445a.572.572,0,0,1,.372-.207.547.547,0,0,1,.409.12l1.848,1.491a.556.556,0,0,1,.081.787l-1.159,1.443.644.519a.554.554,0,0,1,.205.377.552.552,0,0,1-.122.414l-2.148,2.666c.016.009.028.018.045.028a7.734,7.734,0,0,1,3.869,4.622,7.745,7.745,0,0,1-.618,6,8.56,8.56,0,0,1-.79,1.152,7.746,7.746,0,0,1-2.529,2.027.556.556,0,0,1,.267.264l.405.842a.561.561,0,0,1-.266.735.561.561,0,0,1-.741-.248l-.255-.524h-5.736l-1.042,2.151h7.821a.558.558,0,0,1,.259-.749.558.558,0,0,1,.749.26l.4.816a.562.562,0,0,1-.029.544.553.553,0,0,1-.469.261Zm-9.488-15.781,2.908,2.347,6.186-7.682-2.909-2.36Zm7.987-8.167.974.787.563-.7-.972-.789Z" transform="translate(10375 2875)" fill="#fff"/></g></svg>