<svg xmlns="http://www.w3.org/2000/svg" width="48" height="48" viewBox="0 0 48 48"><g transform="translate(-250 -479)"><g transform="translate(250 479)" fill="none" stroke="#fff" stroke-width="1"><circle cx="24" cy="24" r="24" stroke="none"/><circle cx="24" cy="24" r="23.5" fill="none"/></g><g transform="translate(206.559 490.534)"><path d="M74.642,24h-14.4a3.907,3.907,0,0,1-3.383-1.757,2.759,2.759,0,0,1-.019-2.882l5.7-9.784A8.873,8.873,0,0,0,63.774,5.12V.512a.528.528,0,0,1,1.056,0V5.12a9.891,9.891,0,0,1-1.369,4.963l-5.7,9.783a1.757,1.757,0,0,0,.011,1.86,2.839,2.839,0,0,0,2.47,1.247h14.4a2.841,2.841,0,0,0,2.47-1.247,1.757,1.757,0,0,0,.011-1.86l-5.7-9.783a9.883,9.883,0,0,1-1.37-4.963V.512a.528.528,0,0,1,1.056,0V5.12A8.873,8.873,0,0,0,72.34,9.578l5.7,9.784a2.753,2.753,0,0,1-.02,2.88A3.9,3.9,0,0,1,74.642,24Z" fill="#fff"/><path d="M246.346,1.01h-10.89a.526.526,0,0,1-.545-.5.526.526,0,0,1,.545-.5h10.89a.526.526,0,0,1,.545.5A.526.526,0,0,1,246.346,1.01ZM236.271,15.487a.572.572,0,0,1-.276-.069.511.511,0,0,1-.252-.308.472.472,0,0,1,.057-.383l2.121-3.346a.571.571,0,0,1,.747-.181.485.485,0,0,1,.2.691l-2.122,3.346a.557.557,0,0,1-.471.249Zm-1.76,2.777a.569.569,0,0,1-.276-.069.485.485,0,0,1-.2-.691l.641-1.01a.571.571,0,0,1,.747-.181.485.485,0,0,1,.2.691l-.641,1.01A.556.556,0,0,1,234.511,18.264Z" transform="translate(-173.425)" fill="#fff"/></g></g></svg>