<svg xmlns="http://www.w3.org/2000/svg" width="80" height="80" viewBox="0 0 80 80">
  <defs>
    <style>
      .cls-1 {
        fill: #fff;
      }
    </style>
  </defs>
  <path id="防伪查询_提示3" data-name="防伪查询 – 提示3" class="cls-1" d="M246,159a40,40,0,1,0,40,40A40,40,0,0,0,246,159Zm16.04,52.1a2.811,2.811,0,1,1-3.985,3.965L246,202.985,233.945,215.07a2.811,2.811,0,0,1-3.985-3.965l12.07-12.1-12.07-12.1a2.811,2.811,0,0,1,3.985-3.965L246,195.015l12.055-12.1a2.811,2.811,0,1,1,3.985,3.965L249.97,199Z" transform="translate(-206 -159)"/>
</svg>
