<svg xmlns="http://www.w3.org/2000/svg" width="60" height="60" viewBox="0 0 60 60"><g transform="translate(-1820 -950)"><g transform="translate(1820 950)" fill="none" stroke="#fff" stroke-width="2"><circle cx="30" cy="30" r="30" stroke="none"/><circle cx="30" cy="30" r="29" fill="none"/></g><path d="M4870.521-1230.912l-14.107-14.107-14.107,14.107a1.109,1.109,0,0,1-1.568,0,1.109,1.109,0,0,1,0-1.568l14.107-14.107-14.107-14.107a1.109,1.109,0,0,1,0-1.568,1.109,1.109,0,0,1,1.568,0l14.107,14.107,14.107-14.107a1.108,1.108,0,0,1,1.567,0,1.108,1.108,0,0,1,0,1.568l-14.107,14.107,14.107,14.107a1.108,1.108,0,0,1,0,1.568,1.1,1.1,0,0,1-.784.325A1.1,1.1,0,0,1,4870.521-1230.912Z" transform="translate(-3006.414 2226.586)" fill="#fff"/></g></svg>