<svg xmlns="http://www.w3.org/2000/svg" width="48" height="48" viewBox="0 0 48 48"><g transform="translate(-250 -479)"><g transform="translate(250 479)" fill="none" stroke="#fff" stroke-width="1"><circle cx="24" cy="24" r="24" stroke="none"/><circle cx="24" cy="24" r="23.5" fill="none"/></g><path d="M96.152,73.143c.565,0,.988.267.988.8v11.2c0,.533-.424.8-.988.8s-.988-.267-.988-.8v-11.2a1.018,1.018,0,0,1,.988-.8Zm0,14.4c.565,0,.988.267.988.8s-.424.8-.988.8H74.128c-.565,0-.988-.267-.988-.8s.424-.8.988-.8H96.152Zm-9.176-1.6c-.565,0-.988-.267-.988-.8v-11.2c0-.533.424-.8.988-.8s.988.267.988.8v11.2c0,.533-.424.8-.988.8Zm-9.176,0c-.565,0-.988-.267-.988-.8v-11.2c0-.533.424-.8.988-.8h1.835q.847,0,.847.8v11.2c0,.533-.424.8-.988.8H77.8Zm12.847,0c-.565,0-.988-.267-.988-.8v-11.2a.919.919,0,0,1,.988-.8h1.835c.565,0,.988.267.988.8v11.2c0,.533-.424.8-.988.8H90.646Zm-7.341,0c-.565,0-.988-.267-.988-.8v-11.2c0-.533.424-.8.988-.8s.988.267.988.8v11.2a.919.919,0,0,1-.988.8Zm-9.176,0c-.565,0-.988-.267-.988-.8v-11.2c0-.533.424-.8.988-.8a.793.793,0,0,1,.847.8v11.2a.793.793,0,0,1-.847.8Z" transform="translate(188.86 421.857)" fill="#fff"/></g></svg>