<svg xmlns="http://www.w3.org/2000/svg" width="48" height="48" viewBox="0 0 48 48"><g transform="translate(-250 -479)"><g transform="translate(250 479)" fill="none" stroke="#fff" stroke-width="1"><circle cx="24" cy="24" r="24" stroke="none"/><circle cx="24" cy="24" r="23.5" fill="none"/></g><g transform="translate(197.3 382.5)" fill="none"><path d="M86.32,129.478a3.489,3.489,0,0,1-2.02,1.806,4.1,4.1,0,0,1-1.269.216H70.3a3.447,3.447,0,0,1-3.4-4.668L69.54,120.1a3.681,3.681,0,0,1,3.4-2.249H73.5v-1.161a.984.984,0,0,1,1.967,0v1.161H77.9v-1.161a.986.986,0,0,1,1.969,0v1.161h.512a3.679,3.679,0,0,1,3.4,2.249l2.645,6.723A3.364,3.364,0,0,1,86.32,129.478Zm.515-11.333H84.9a1.92,1.92,0,0,1-1.68-1.019c-.021-.046-.048-.1-.07-.156s-.04-.1-.062-.139l-.005-.008-.005-.008a.816.816,0,0,0-.091-.208,1.081,1.081,0,0,1-.078-.159,3.987,3.987,0,0,0-.558-.814c-1.062-1.224-2.908-1.817-5.645-1.817-2.7.041-4.465.645-5.562,1.9a4.017,4.017,0,0,0-.553.806.362.362,0,0,1-.054.107.579.579,0,0,0-.078.148l-.008.011-.091.183a1.5,1.5,0,0,1-.137.251,1.968,1.968,0,0,1-1.626.883H66.567a1.826,1.826,0,0,1-1.867-1.779v-2.438a1.748,1.748,0,0,1,.743-1.421c2.275-1.828,6.59-2.965,11.258-2.965,4.623,0,8.937,1.137,11.255,2.965l.008.005.046.041a1.9,1.9,0,0,1,.69,1.416v2.435a1.826,1.826,0,0,1-1.865,1.782Z" stroke="none"/><path d="M 83.0306396484375 129.9999847412109 C 83.27213287353516 129.9999847412109 83.51748657226563 129.9571838378906 83.82354736328125 129.8614196777344 C 84.33929443359375 129.6759185791016 84.73377227783203 129.3210296630859 84.96353149414063 128.8375244140625 C 85.18704986572266 128.3638153076172 85.21178436279297 127.8418731689453 85.03337860107422 127.3668975830078 L 82.39430236816406 120.6602172851563 C 82.07559204101563 119.8790130615234 81.26900482177734 119.3545227050781 80.38513946533203 119.3545227050781 L 79.8726806640625 119.3545227050781 L 78.3726806640625 119.3545227050781 L 77.90330505371094 119.3545227050781 L 75.46708679199219 119.3545227050781 L 73.96708679199219 119.3545227050781 L 73.50041198730469 119.3545227050781 L 72.94232177734375 119.3545227050781 C 72.05914306640625 119.3545227050781 71.25247192382813 119.8792877197266 70.932861328125 120.6609954833984 L 68.30097961425781 127.3548049926758 C 68.21001434326172 127.6172409057617 68.16932678222656 127.8294448852539 68.16932678222656 128.0401000976563 C 68.16932678222656 129.1207885742188 69.12371826171875 129.9999847412109 70.29682159423828 129.9999847412109 L 83.0306396484375 129.9999847412109 M 86.83522796630859 116.6442184448242 C 87.02952575683594 116.6442184448242 87.19995880126953 116.5125045776367 87.19995880126953 116.3623580932617 L 87.19995880126953 113.9273223876953 C 87.19995880126953 113.8969497680664 87.19997406005859 113.8182220458984 86.99960327148438 113.620849609375 C 84.95485687255859 112.02783203125 80.91931915283203 110.9999923706055 76.70130157470703 110.9999923706055 C 72.42460632324219 110.9999923706055 68.37433624267578 112.0340957641602 66.38275146484375 113.6344757080078 L 66.3668212890625 113.6472778320313 L 66.35054779052734 113.6596374511719 C 66.19995880126953 113.7740325927734 66.19995880126953 113.8416137695313 66.19995880126953 113.8863372802734 L 66.19995880126953 116.3240814208984 C 66.19995880126953 116.4561080932617 66.35084533691406 116.6032180786133 66.56736755371094 116.6032180786133 L 68.59307861328125 116.6032180786133 C 68.73954772949219 116.6032180786133 68.90158843994141 116.4986877441406 68.94449615478516 116.4295425415039 L 68.97138977050781 116.3862075805664 C 68.97892761230469 116.3709259033203 68.98941802978516 116.3493957519531 69.00399780273438 116.3190612792969 L 69.00663757324219 116.3135757446289 L 69.00933074951172 116.30810546875 C 69.02603149414063 116.2740783691406 69.04347991943359 116.2392654418945 69.06093597412109 116.2044525146484 C 69.07360076904297 116.1792297363281 69.08627319335938 116.1540069580078 69.09844970703125 116.129280090332 C 69.13320922851563 116.0507888793945 69.17362976074219 115.973274230957 69.21949768066406 115.8971862792969 L 69.26120758056641 115.818473815918 C 69.48052978515625 115.4046325683594 69.71179962158203 115.067756652832 70.01033782958984 114.7270050048828 C 71.40777587890625 113.1296081542969 73.52664184570313 112.3633117675781 76.67852020263672 112.3154449462891 L 76.68991088867188 112.3152770996094 L 76.70130157470703 112.3152770996094 C 79.89642333984375 112.3152770996094 82.11257934570313 113.0775985717773 83.47593688964844 114.6455993652344 C 83.78079223632813 114.993408203125 84.01416778564453 115.3339538574219 84.23246002197266 115.7495040893555 L 84.28160858154297 115.8430633544922 L 84.29409790039063 115.878044128418 L 84.29873657226563 115.8863830566406 C 84.33833312988281 115.9575653076172 84.40199279785156 116.072021484375 84.46007537841797 116.228141784668 C 84.48305511474609 116.2775421142578 84.50051879882813 116.3199234008789 84.51325225830078 116.3508224487305 L 84.52078247070313 116.3690185546875 L 84.52667999267578 116.3825378417969 L 84.53231048583984 116.3961715698242 C 84.53892517089844 116.4121780395508 84.54652404785156 116.4289855957031 84.5540771484375 116.4453277587891 C 84.62618255615234 116.5634384155273 84.76322937011719 116.6442184448242 84.89537048339844 116.6442184448242 L 86.83522796630859 116.6442184448242 M 83.0306396484375 131.4999847412109 L 70.29682159423828 131.4999847412109 C 68.29793548583984 131.4999847412109 66.66932678222656 129.9476928710938 66.66932678222656 128.0401000976563 C 66.66932678222656 127.6575012207031 66.73908996582031 127.2721557617188 66.89470672607422 126.8321380615234 L 69.54019927978516 120.1037139892578 C 70.08486175537109 118.7591171264648 71.45054626464844 117.8545227050781 72.94232177734375 117.8545227050781 L 73.50041198730469 117.8545227050781 L 73.50041198730469 116.6930313110352 C 73.50041198730469 116.1737747192383 73.94309997558594 115.7529144287109 74.48509216308594 115.7529144287109 C 75.02706909179688 115.7529144287109 75.46708679199219 116.1737747192383 75.46708679199219 116.6930313110352 L 75.46708679199219 117.8545227050781 L 77.90330505371094 117.8545227050781 L 77.90330505371094 116.6930313110352 C 77.90330505371094 116.1737747192383 78.34601593017578 115.7529144287109 78.88798522949219 115.7529144287109 C 79.42997741699219 115.7529144287109 79.8726806640625 116.1737747192383 79.8726806640625 116.6930313110352 L 79.8726806640625 117.8545227050781 L 80.38513946533203 117.8545227050781 C 81.87425231933594 117.8545227050781 83.24259948730469 118.7563858032227 83.78726959228516 120.1037139892578 L 86.43276214599609 126.8266983032227 C 86.76010131835938 127.6875610351563 86.71985626220703 128.6304168701172 86.32009124755859 129.4776306152344 C 85.91493988037109 130.3302917480469 85.19855499267578 130.9697875976563 84.29972839355469 131.2840728759766 C 83.8355712890625 131.4316711425781 83.43310546875 131.4999847412109 83.0306396484375 131.4999847412109 Z M 86.83522796630859 118.1442184448242 L 86.83522033691406 118.1442184448242 L 84.89537048339844 118.1442184448242 C 84.20046234130859 118.1442184448242 83.54310607910156 117.7452011108398 83.21578216552734 117.1248321533203 C 83.19430541992188 117.0783615112305 83.16748046875 117.0209884643555 83.14601898193359 116.9690551757813 C 83.12454986572266 116.9198684692383 83.10576629638672 116.8679428100586 83.08431243896484 116.8296737670898 L 83.07894134521484 116.8214874267578 L 83.07357788085938 116.8132781982422 C 83.05210876464844 116.7285614013672 83.01722717285156 116.6684341430664 82.98234558105469 116.605583190918 C 82.95552062988281 116.5563812255859 82.92600250244141 116.507194519043 82.90452575683594 116.4470748901367 C 82.74086761474609 116.1355209350586 82.57183837890625 115.8895645141602 82.34646606445313 115.6326675415039 C 81.28396606445313 114.408317565918 79.43801879882813 113.8152770996094 76.70130157470703 113.8152770996094 C 74.00213623046875 113.8562622070313 72.23667907714844 114.4602432250977 71.13930511474609 115.7146453857422 C 70.91661834716797 115.9688110351563 70.75025939941406 116.212043762207 70.58660125732422 116.520866394043 C 70.57855224609375 116.5563812255859 70.55707550048828 116.5891876220703 70.53293609619141 116.62744140625 C 70.50611114501953 116.6656951904297 70.47390747070313 116.7176284790039 70.45513153076172 116.7750244140625 L 70.44708251953125 116.7859573364258 C 70.41755676269531 116.846076965332 70.38536834716797 116.908935546875 70.35585784912109 116.9690551757813 C 70.29146575927734 117.1029739379883 70.25389862060547 117.1767654418945 70.21901702880859 117.2204818725586 C 69.89168548583984 117.7479476928711 69.23970031738281 118.1032180786133 68.59307861328125 118.1032180786133 L 66.56736755371094 118.1032180786133 C 65.53707122802734 118.1032180786133 64.69995880126953 117.3051910400391 64.69995880126953 116.3240814208984 L 64.69995880126953 113.8863372802734 C 64.69995880126953 113.3260879516602 64.95752716064453 112.8341445922852 65.44316101074219 112.465217590332 C 67.71840667724609 110.6368865966797 72.03277587890625 109.4999923706055 76.70130157470703 109.4999923706055 C 81.32421875 109.4999923706055 85.63856506347656 110.6368865966797 87.95674896240234 112.465217590332 L 87.96479797363281 112.4706726074219 L 88.01040649414063 112.5116653442383 C 88.48262786865234 112.9625930786133 88.69995880126953 113.4107971191406 88.69995880126953 113.9273223876953 L 88.69995880126953 116.3623580932617 C 88.69995880126953 117.34619140625 87.86283874511719 118.1442184448242 86.83522796630859 118.1442184448242 Z" stroke="none" fill="#fff"/></g><g transform="translate(271 504)" fill="none" stroke="#fff" stroke-width="1.5"><circle cx="3" cy="3" r="3" stroke="none"/><circle cx="3" cy="3" r="2.25" fill="none"/></g></g></svg>