<svg xmlns="http://www.w3.org/2000/svg" width="48" height="48" viewBox="0 0 48 48"><g transform="translate(-250 -479)"><g transform="translate(250 479)" fill="none" stroke="#fff" stroke-width="1"><circle cx="24" cy="24" r="24" stroke="none"/><circle cx="24" cy="24" r="23.5" fill="none"/></g><path d="M99.77,98.012a1.468,1.468,0,0,1,1.463,1.463v4.39a1.468,1.468,0,0,1-1.463,1.463H95.38a1.468,1.468,0,0,1-1.463-1.463v-4.39a1.468,1.468,0,0,1,1.463-1.463h4.39m0-1.756H95.38a3.21,3.21,0,0,0-3.22,3.22v4.39a3.21,3.21,0,0,0,3.22,3.22h4.39a3.21,3.21,0,0,0,3.22-3.22v-4.39a3.21,3.21,0,0,0-3.22-3.22Zm13.171,1.756a1.468,1.468,0,0,1,1.463,1.463v4.39a1.468,1.468,0,0,1-1.463,1.463h-4.39a1.468,1.468,0,0,1-1.463-1.463v-4.39a1.468,1.468,0,0,1,1.463-1.463h4.39m0-1.756h-4.39a3.21,3.21,0,0,0-3.22,3.22v4.39a3.21,3.21,0,0,0,3.22,3.22h4.39a3.21,3.21,0,0,0,3.22-3.22v-4.39a3.21,3.21,0,0,0-3.22-3.22ZM99.77,111.183a1.468,1.468,0,0,1,1.463,1.463v4.39A1.468,1.468,0,0,1,99.77,118.5H95.38a1.468,1.468,0,0,1-1.463-1.463v-4.39a1.468,1.468,0,0,1,1.463-1.463h4.39m0-1.756H95.38a3.21,3.21,0,0,0-3.22,3.22v4.39a3.21,3.21,0,0,0,3.22,3.22h4.39a3.21,3.21,0,0,0,3.22-3.22v-4.39A3.21,3.21,0,0,0,99.77,109.427Zm7.317,3.512a.881.881,0,0,1-.878-.878v-.878a.878.878,0,0,1,1.756,0v.878A.881.881,0,0,1,107.087,112.939Zm0,6.439a.881.881,0,0,1-.878-.878v-4.083a.878.878,0,0,1,1.756,0V118.5A.881.881,0,0,1,107.087,119.378Zm3.659-2.634a.881.881,0,0,1,.878.878v.878a.878.878,0,1,1-1.756,0v-.878A.881.881,0,0,1,110.745,116.744Zm0-6.439a.881.881,0,0,1,.878.878v4.1a.878.878,0,1,1-1.756,0v-4.1A.881.881,0,0,1,110.745,110.3Zm3.659,3.644a.881.881,0,0,1-.878-.878v-1.888a.878.878,0,0,1,1.756,0v1.888A.881.881,0,0,1,114.4,113.949Zm0,5.429a.881.881,0,0,1-.878-.878v-2.78a.878.878,0,0,1,1.756,0v2.78A.881.881,0,0,1,114.4,119.378Z" transform="translate(169.84 394.744)" fill="#fff"/></g></svg>