<svg xmlns="http://www.w3.org/2000/svg" width="48" height="48" viewBox="0 0 48 48"><g transform="translate(-250 -479)"><g transform="translate(250 479)" fill="none" stroke="#fff" stroke-width="1"><circle cx="24" cy="24" r="24" stroke="none"/><circle cx="24" cy="24" r="23.5" fill="none"/></g><path d="M72.546,39.1a.835.835,0,0,1,.432-.486.871.871,0,0,1,.659-.038.857.857,0,0,1,.523,1.093,19.928,19.928,0,0,0-1,6.469c0,5.736,2.1,10.286,4.28,10.286a2.743,2.743,0,0,0,2.06-1.381.843.843,0,0,1,.556-.343.857.857,0,0,1,.83,1.349,4.353,4.353,0,0,1-3.446,2.089c-3.489,0-5.991-5.428-5.991-12A21.581,21.581,0,0,1,72.546,39.1Zm4.544,11.788q1.08-.478,2.109-1.057,1.252-.7,2.433-1.518.086-1.036.085-2.176c0-.784-.039-1.545-.112-2.277-.781-.458-1.573-.9-2.3-1.305a24.333,24.333,0,0,0-2.186-1.09q-.994.473-2.089,1.089a21.533,21.533,0,0,0-4.892,3.693,22.473,22.473,0,0,0,6.953,4.641Zm-2.186.831c-.282-.144-.563-.294-.841-.451a23.6,23.6,0,0,1-5.03-3.731C67.91,49.047,67.5,50.424,68.02,51.3a2.831,2.831,0,0,0,2.351,1.054.849.849,0,0,1,.587.289.8.8,0,0,1,.193.613.889.889,0,0,1-.958.771,4.424,4.424,0,0,1-3.7-1.87c-1.745-2.943,1.833-7.767,7.677-11.053.276-.154.548-.3.816-.447-3.391-1.073-6.195-.951-6.971.357a2.8,2.8,0,0,0,.327,2.687.8.8,0,0,1,.057.638.826.826,0,0,1-.432.483.907.907,0,0,1-1.178-.388c-.849-1.6-1-3.1-.3-4.277,1.439-2.426,5.825-2.44,10.6-.528a18.6,18.6,0,0,1,3.169-1.1c-.779-1.672-1.789-2.685-2.819-2.685a2.9,2.9,0,0,0-2.193,1.572.842.842,0,0,1-.543.363.856.856,0,0,1-.878-1.319,4.489,4.489,0,0,1,3.613-2.331c2.891,0,5.1,3.726,5.778,8.741a23.121,23.121,0,0,1,2.588,1.8c1.233-1.45,1.781-2.763,1.279-3.609a2.672,2.672,0,0,0-2.132-1.034.847.847,0,0,1-.576-.309.8.8,0,0,1-.171-.619.893.893,0,0,1,.986-.741,4.279,4.279,0,0,1,3.418,1.845c.928,1.565.1,3.664-1.752,5.781a1.668,1.668,0,0,1-.5.544,23.822,23.822,0,0,1-3.092,2.673,18.47,18.47,0,0,1-.628,3.161c2.2.23,3.913-.107,4.449-1.01a2.54,2.54,0,0,0-.155-2.335.8.8,0,0,1-.015-.64.83.83,0,0,1,.463-.455.906.906,0,0,1,1.152.457,4.063,4.063,0,0,1,.079,3.831c-1.45,2.445-6.494,2.437-11.511.481a20.361,20.361,0,0,1-4.126,1.214q-.412-1.628-.269-1.652a16.786,16.786,0,0,0,2.2-.546Zm4.392-.034c.555.166,1.1.306,1.63.417a14.732,14.732,0,0,0,.4-1.583q-.625.39-1.276.755Q79.677,51.483,79.3,51.682Zm1.988-9.941q-.169-.824-.42-1.629a13.851,13.851,0,0,0-1.665.482q.481.244.962.515l1.123.633ZM83.4,44.978q.026.571.026,1.155c0,.283,0,.562-.011.837.437-.357.848-.717,1.223-1.074q-.6-.488-1.238-.917ZM77.438,46.99a.857.857,0,1,1,.856-.857A.856.856,0,0,1,77.438,46.99Z" transform="translate(196.45 456.866)" fill="#fff"/></g></svg>